<svg id="visual" viewBox="0 0 900 600" width="900" height="600" xmlns="http://www.w3.org/2000/svg" xmlns:xlink="http://www.w3.org/1999/xlink" version="1.1"><g stroke-width="1" stroke-linejoin="bevel"><path d="M461 298L448 359L511 316Z" fill="#112e42" stroke="#112e42"></path><path d="M448 359L524 387L511 316Z" fill="#15384f" stroke="#15384f"></path><path d="M461 298L386 290L448 359Z" fill="#0c2435" stroke="#0c2435"></path><path d="M386 290L374 365L448 359Z" fill="#15384f" stroke="#15384f"></path><path d="M448 359L464 459L524 387Z" fill="#297ea6" stroke="#297ea6"></path><path d="M530 236L440 231L461 298Z" fill="#246688" stroke="#246688"></path><path d="M461 298L440 231L386 290Z" fill="#00101c" stroke="#00101c"></path><path d="M607 290L530 236L511 316Z" fill="#00101c" stroke="#00101c"></path><path d="M511 316L530 236L461 298Z" fill="#1d4e6b" stroke="#1d4e6b"></path><path d="M524 387L597 370L511 316Z" fill="#15384f" stroke="#15384f"></path><path d="M368 440L464 459L448 359Z" fill="#15384f" stroke="#15384f"></path><path d="M524 387L601 439L597 370Z" fill="#112e42" stroke="#112e42"></path><path d="M464 459L537 451L524 387Z" fill="#19435d" stroke="#19435d"></path><path d="M597 370L607 290L511 316Z" fill="#246688" stroke="#246688"></path><path d="M374 365L368 440L448 359Z" fill="#0c2435" stroke="#0c2435"></path><path d="M462 143L385 210L440 231Z" fill="#081a28" stroke="#081a28"></path><path d="M440 231L385 210L386 290Z" fill="#15384f" stroke="#15384f"></path><path d="M386 290L315 362L374 365Z" fill="#112e42" stroke="#112e42"></path><path d="M374 365L315 362L368 440Z" fill="#081a28" stroke="#081a28"></path><path d="M537 451L601 439L524 387Z" fill="#19435d" stroke="#19435d"></path><path d="M597 370L680 308L607 290Z" fill="#297ea6" stroke="#297ea6"></path><path d="M299 297L315 362L386 290Z" fill="#297ea6" stroke="#297ea6"></path><path d="M607 290L610 213L530 236Z" fill="#15384f" stroke="#15384f"></path><path d="M530 236L462 143L440 231Z" fill="#00101c" stroke="#00101c"></path><path d="M315 232L299 297L386 290Z" fill="#246688" stroke="#246688"></path><path d="M610 213L535 152L530 236Z" fill="#19435d" stroke="#19435d"></path><path d="M312 158L315 232L385 210Z" fill="#205a7a" stroke="#205a7a"></path><path d="M385 210L315 232L386 290Z" fill="#277297" stroke="#277297"></path><path d="M535 152L462 143L530 236Z" fill="#15384f" stroke="#15384f"></path><path d="M375 529L465 537L464 459Z" fill="#205a7a" stroke="#205a7a"></path><path d="M464 459L525 533L537 451Z" fill="#246688" stroke="#246688"></path><path d="M537 451L616 526L601 439Z" fill="#081a28" stroke="#081a28"></path><path d="M683 364L680 308L597 370Z" fill="#15384f" stroke="#15384f"></path><path d="M607 290L663 219L610 213Z" fill="#0c2435" stroke="#0c2435"></path><path d="M465 537L525 533L464 459Z" fill="#00101c" stroke="#00101c"></path><path d="M665 435L683 364L597 370Z" fill="#277297" stroke="#277297"></path><path d="M665 435L597 370L601 439Z" fill="#0c2435" stroke="#0c2435"></path><path d="M616 526L665 435L601 439Z" fill="#297ea6" stroke="#297ea6"></path><path d="M680 308L663 219L607 290Z" fill="#081a28" stroke="#081a28"></path><path d="M610 213L616 139L535 152Z" fill="#277297" stroke="#277297"></path><path d="M315 362L301 466L368 440Z" fill="#1d4e6b" stroke="#1d4e6b"></path><path d="M368 440L375 529L464 459Z" fill="#277297" stroke="#277297"></path><path d="M240 438L301 466L315 362Z" fill="#1d4e6b" stroke="#1d4e6b"></path><path d="M301 466L375 529L368 440Z" fill="#0c2435" stroke="#0c2435"></path><path d="M462 143L365 140L385 210Z" fill="#277297" stroke="#277297"></path><path d="M525 533L616 526L537 451Z" fill="#081a28" stroke="#081a28"></path><path d="M663 219L616 139L610 213Z" fill="#297ea6" stroke="#297ea6"></path><path d="M538 74L450 82L462 143Z" fill="#205a7a" stroke="#205a7a"></path><path d="M462 143L450 82L365 140Z" fill="#1d4e6b" stroke="#1d4e6b"></path><path d="M365 140L312 158L385 210Z" fill="#081a28" stroke="#081a28"></path><path d="M210 294L237 359L299 297Z" fill="#277297" stroke="#277297"></path><path d="M210 294L299 297L215 225Z" fill="#205a7a" stroke="#205a7a"></path><path d="M299 297L237 359L315 362Z" fill="#297ea6" stroke="#297ea6"></path><path d="M230 513L301 508L301 466Z" fill="#081a28" stroke="#081a28"></path><path d="M301 466L301 508L375 529Z" fill="#00101c" stroke="#00101c"></path><path d="M538 74L462 143L535 152Z" fill="#277297" stroke="#277297"></path><path d="M365 140L306 81L312 158Z" fill="#0c2435" stroke="#0c2435"></path><path d="M237 359L240 438L315 362Z" fill="#277297" stroke="#277297"></path><path d="M683 364L743 299L680 308Z" fill="#1d4e6b" stroke="#1d4e6b"></path><path d="M680 308L743 299L663 219Z" fill="#277297" stroke="#277297"></path><path d="M665 435L733 379L683 364Z" fill="#0c2435" stroke="#0c2435"></path><path d="M757 451L733 379L665 435Z" fill="#1d4e6b" stroke="#1d4e6b"></path><path d="M606 89L538 74L535 152Z" fill="#19435d" stroke="#19435d"></path><path d="M375 529L465 600L465 537Z" fill="#246688" stroke="#246688"></path><path d="M465 537L522 600L525 533Z" fill="#112e42" stroke="#112e42"></path><path d="M525 533L597 600L616 526Z" fill="#112e42" stroke="#112e42"></path><path d="M363 600L465 600L375 529Z" fill="#112e42" stroke="#112e42"></path><path d="M733 379L743 299L683 364Z" fill="#205a7a" stroke="#205a7a"></path><path d="M684 77L606 89L616 139Z" fill="#081a28" stroke="#081a28"></path><path d="M215 225L299 297L315 232Z" fill="#0c2435" stroke="#0c2435"></path><path d="M237 359L160 446L240 438Z" fill="#297ea6" stroke="#297ea6"></path><path d="M671 600L666 526L616 526Z" fill="#112e42" stroke="#112e42"></path><path d="M616 526L666 526L665 435Z" fill="#112e42" stroke="#112e42"></path><path d="M465 600L522 600L465 537Z" fill="#081a28" stroke="#081a28"></path><path d="M690 136L616 139L663 219Z" fill="#19435d" stroke="#19435d"></path><path d="M616 139L606 89L535 152Z" fill="#277297" stroke="#277297"></path><path d="M450 82L360 77L365 140Z" fill="#1d4e6b" stroke="#1d4e6b"></path><path d="M312 158L215 225L315 232Z" fill="#00101c" stroke="#00101c"></path><path d="M453 0L360 77L450 82Z" fill="#297ea6" stroke="#297ea6"></path><path d="M219 154L215 225L312 158Z" fill="#205a7a" stroke="#205a7a"></path><path d="M300 600L375 529L301 508Z" fill="#1d4e6b" stroke="#1d4e6b"></path><path d="M300 600L363 600L375 529Z" fill="#205a7a" stroke="#205a7a"></path><path d="M752 220L690 136L663 219Z" fill="#15384f" stroke="#15384f"></path><path d="M522 600L597 600L525 533Z" fill="#0c2435" stroke="#0c2435"></path><path d="M743 299L752 220L663 219Z" fill="#0c2435" stroke="#0c2435"></path><path d="M761 540L757 451L666 526Z" fill="#0c2435" stroke="#0c2435"></path><path d="M666 526L757 451L665 435Z" fill="#081a28" stroke="#081a28"></path><path d="M733 379L817 368L743 299Z" fill="#277297" stroke="#277297"></path><path d="M743 299L824 215L752 220Z" fill="#15384f" stroke="#15384f"></path><path d="M360 77L306 81L365 140Z" fill="#0c2435" stroke="#0c2435"></path><path d="M240 438L230 513L301 466Z" fill="#1d4e6b" stroke="#1d4e6b"></path><path d="M160 446L230 513L240 438Z" fill="#0c2435" stroke="#0c2435"></path><path d="M306 81L219 154L312 158Z" fill="#00101c" stroke="#00101c"></path><path d="M215 225L163 284L210 294Z" fill="#246688" stroke="#246688"></path><path d="M165 230L163 284L215 225Z" fill="#112e42" stroke="#112e42"></path><path d="M210 294L134 391L237 359Z" fill="#277297" stroke="#277297"></path><path d="M230 513L300 600L301 508Z" fill="#00101c" stroke="#00101c"></path><path d="M752 220L744 144L690 136Z" fill="#1d4e6b" stroke="#1d4e6b"></path><path d="M690 136L684 77L616 139Z" fill="#112e42" stroke="#112e42"></path><path d="M219 154L165 230L215 225Z" fill="#15384f" stroke="#15384f"></path><path d="M532 0L453 0L538 74Z" fill="#0c2435" stroke="#0c2435"></path><path d="M744 144L684 77L690 136Z" fill="#0c2435" stroke="#0c2435"></path><path d="M597 600L671 600L616 526Z" fill="#1d4e6b" stroke="#1d4e6b"></path><path d="M532 0L538 74L601 0Z" fill="#0c2435" stroke="#0c2435"></path><path d="M538 74L453 0L450 82Z" fill="#081a28" stroke="#081a28"></path><path d="M360 77L361 0L306 81Z" fill="#246688" stroke="#246688"></path><path d="M134 391L160 446L237 359Z" fill="#15384f" stroke="#15384f"></path><path d="M230 513L227 600L300 600Z" fill="#205a7a" stroke="#205a7a"></path><path d="M601 0L538 74L606 89Z" fill="#277297" stroke="#277297"></path><path d="M812 455L817 368L757 451Z" fill="#081a28" stroke="#081a28"></path><path d="M757 451L817 368L733 379Z" fill="#205a7a" stroke="#205a7a"></path><path d="M752 220L824 215L744 144Z" fill="#297ea6" stroke="#297ea6"></path><path d="M163 284L134 391L210 294Z" fill="#112e42" stroke="#112e42"></path><path d="M91 391L134 391L86 294Z" fill="#277297" stroke="#277297"></path><path d="M738 600L761 540L666 526Z" fill="#1d4e6b" stroke="#1d4e6b"></path><path d="M453 0L361 0L360 77Z" fill="#081a28" stroke="#081a28"></path><path d="M306 81L220 90L219 154Z" fill="#112e42" stroke="#112e42"></path><path d="M230 0L220 90L306 81Z" fill="#19435d" stroke="#19435d"></path><path d="M219 154L163 133L165 230Z" fill="#112e42" stroke="#112e42"></path><path d="M684 77L601 0L606 89Z" fill="#15384f" stroke="#15384f"></path><path d="M809 516L812 455L757 451Z" fill="#0c2435" stroke="#0c2435"></path><path d="M900 366L838 312L817 368Z" fill="#297ea6" stroke="#297ea6"></path><path d="M817 368L838 312L743 299Z" fill="#1d4e6b" stroke="#1d4e6b"></path><path d="M137 537L230 513L160 446Z" fill="#277297" stroke="#277297"></path><path d="M162 600L227 600L230 513Z" fill="#19435d" stroke="#19435d"></path><path d="M838 312L824 215L743 299Z" fill="#00101c" stroke="#00101c"></path><path d="M744 144L765 82L684 77Z" fill="#081a28" stroke="#081a28"></path><path d="M220 90L163 133L219 154Z" fill="#00101c" stroke="#00101c"></path><path d="M86 294L134 391L163 284Z" fill="#277297" stroke="#277297"></path><path d="M761 540L809 516L757 451Z" fill="#00101c" stroke="#00101c"></path><path d="M671 600L738 600L666 526Z" fill="#081a28" stroke="#081a28"></path><path d="M810 600L809 516L761 540Z" fill="#277297" stroke="#277297"></path><path d="M900 455L900 366L817 368Z" fill="#246688" stroke="#246688"></path><path d="M361 0L295 0L306 81Z" fill="#0c2435" stroke="#0c2435"></path><path d="M220 90L140 71L163 133Z" fill="#0c2435" stroke="#0c2435"></path><path d="M810 88L765 82L744 144Z" fill="#297ea6" stroke="#297ea6"></path><path d="M684 77L677 0L601 0Z" fill="#112e42" stroke="#112e42"></path><path d="M746 0L677 0L684 77Z" fill="#081a28" stroke="#081a28"></path><path d="M86 294L163 284L165 230Z" fill="#1d4e6b" stroke="#1d4e6b"></path><path d="M134 391L76 462L160 446Z" fill="#277297" stroke="#277297"></path><path d="M65 212L86 294L165 230Z" fill="#205a7a" stroke="#205a7a"></path><path d="M76 462L137 537L160 446Z" fill="#0c2435" stroke="#0c2435"></path><path d="M824 215L838 162L744 144Z" fill="#277297" stroke="#277297"></path><path d="M900 226L838 162L824 215Z" fill="#297ea6" stroke="#297ea6"></path><path d="M137 537L162 600L230 513Z" fill="#15384f" stroke="#15384f"></path><path d="M838 162L810 88L744 144Z" fill="#277297" stroke="#277297"></path><path d="M765 82L746 0L684 77Z" fill="#112e42" stroke="#112e42"></path><path d="M295 0L230 0L306 81Z" fill="#246688" stroke="#246688"></path><path d="M0 453L76 462L91 391Z" fill="#1d4e6b" stroke="#1d4e6b"></path><path d="M91 391L76 462L134 391Z" fill="#297ea6" stroke="#297ea6"></path><path d="M137 537L81 600L162 600Z" fill="#297ea6" stroke="#297ea6"></path><path d="M900 455L817 368L812 455Z" fill="#0c2435" stroke="#0c2435"></path><path d="M838 312L900 226L824 215Z" fill="#00101c" stroke="#00101c"></path><path d="M900 366L900 298L838 312Z" fill="#19435d" stroke="#19435d"></path><path d="M838 162L900 70L810 88Z" fill="#205a7a" stroke="#205a7a"></path><path d="M230 0L140 71L220 90Z" fill="#19435d" stroke="#19435d"></path><path d="M80 164L65 212L165 230Z" fill="#1d4e6b" stroke="#1d4e6b"></path><path d="M738 600L810 600L761 540Z" fill="#15384f" stroke="#15384f"></path><path d="M900 509L900 455L812 455Z" fill="#112e42" stroke="#112e42"></path><path d="M835 0L746 0L765 82Z" fill="#297ea6" stroke="#297ea6"></path><path d="M80 164L165 230L163 133Z" fill="#1d4e6b" stroke="#1d4e6b"></path><path d="M86 294L0 358L91 391Z" fill="#1d4e6b" stroke="#1d4e6b"></path><path d="M140 71L80 164L163 133Z" fill="#1d4e6b" stroke="#1d4e6b"></path><path d="M900 298L900 226L838 312Z" fill="#112e42" stroke="#112e42"></path><path d="M900 509L812 455L809 516Z" fill="#19435d" stroke="#19435d"></path><path d="M0 515L78 541L76 462Z" fill="#0c2435" stroke="#0c2435"></path><path d="M76 462L78 541L137 537Z" fill="#297ea6" stroke="#297ea6"></path><path d="M900 600L900 509L809 516Z" fill="#0c2435" stroke="#0c2435"></path><path d="M900 226L900 152L838 162Z" fill="#277297" stroke="#277297"></path><path d="M810 88L835 0L765 82Z" fill="#081a28" stroke="#081a28"></path><path d="M230 0L136 0L140 71Z" fill="#205a7a" stroke="#205a7a"></path><path d="M140 71L65 67L80 164Z" fill="#00101c" stroke="#00101c"></path><path d="M78 541L81 600L137 537Z" fill="#1d4e6b" stroke="#1d4e6b"></path><path d="M0 283L0 358L86 294Z" fill="#0c2435" stroke="#0c2435"></path><path d="M78 541L0 600L81 600Z" fill="#15384f" stroke="#15384f"></path><path d="M0 283L86 294L65 212Z" fill="#205a7a" stroke="#205a7a"></path><path d="M0 283L65 212L0 237Z" fill="#1d4e6b" stroke="#1d4e6b"></path><path d="M0 237L65 212L0 137Z" fill="#19435d" stroke="#19435d"></path><path d="M0 137L65 212L80 164Z" fill="#205a7a" stroke="#205a7a"></path><path d="M900 70L835 0L810 88Z" fill="#112e42" stroke="#112e42"></path><path d="M91 0L65 67L140 71Z" fill="#00101c" stroke="#00101c"></path><path d="M0 358L0 453L91 391Z" fill="#1d4e6b" stroke="#1d4e6b"></path><path d="M900 152L900 70L838 162Z" fill="#15384f" stroke="#15384f"></path><path d="M810 600L900 600L809 516Z" fill="#112e42" stroke="#112e42"></path><path d="M136 0L91 0L140 71Z" fill="#15384f" stroke="#15384f"></path><path d="M0 453L0 515L76 462Z" fill="#15384f" stroke="#15384f"></path><path d="M65 67L0 137L80 164Z" fill="#112e42" stroke="#112e42"></path><path d="M0 60L0 137L65 67Z" fill="#205a7a" stroke="#205a7a"></path><path d="M900 70L900 0L835 0Z" fill="#19435d" stroke="#19435d"></path><path d="M0 515L0 600L78 541Z" fill="#15384f" stroke="#15384f"></path><path d="M0 0L0 60L65 67Z" fill="#112e42" stroke="#112e42"></path><path d="M91 0L0 0L65 67Z" fill="#205a7a" stroke="#205a7a"></path></g></svg>